<svg width="31" height="49" viewBox="0 0 31 49" fill="none" xmlns="http://www.w3.org/2000/svg">
<path d="M10.5 14.5C9.39697 14.5 8.5 15.397 8.5 16.5L8.49072 24.2524C3.56201 27.0225 0.5 32.0293 0.5 37.3184C0.5 41.3276 2.14209 45.2012 5.00391 47.9458C5.37598 48.3032 5.87109 48.5 6.39746 48.5H24.6025C25.1289 48.5 25.624 48.3032 25.9951 47.9463C28.8579 45.2012 30.5 41.3276 30.5 37.3184C30.5 32.0293 27.438 27.0225 22.5 24.2554V16.5C22.5 15.397 21.603 14.5 20.5 14.5H16.5V8.77948C17.6429 8.63953 19.5087 8.20496 20.8569 6.85645C22.8872 4.82666 22.8486 1.61621 22.8462 1.48047L22.8271 0.518555L21.8652 0.5C21.739 0.506348 18.5304 0.460693 16.5 2.48047V1.5C16.5 0.947754 16.0522 0.5 15.5 0.5C14.9478 0.5 14.5 0.947754 14.5 1.5V4.21954C14.3264 3.99817 14.1431 3.78125 13.938 3.57617C11.3237 0.961426 7.1709 1.01465 6.99561 1.01465L6.0332 1.0332L6.01465 1.99561C6.01123 2.1709 5.96191 6.32471 8.57617 8.93799C10.434 10.7958 13.0677 11.3081 14.5 11.448V14.5H10.5ZM17.9038 3.90381C18.7231 3.08496 19.8936 2.74316 20.7437 2.60107C20.6006 3.45215 20.2588 4.62646 19.4429 5.44238C18.6235 6.26172 17.4526 6.60303 16.603 6.74512C16.7461 5.89404 17.0879 4.71973 17.9038 3.90381ZM9.99023 7.52393C8.67725 6.21094 8.23633 4.27686 8.08887 3.08887C9.27686 3.23633 11.2109 3.67725 12.5239 4.99023C13.8384 6.30469 14.2788 8.2417 14.4258 9.42871C13.2412 9.28369 11.312 8.8457 9.99023 7.52393ZM24.6025 46.5L6.38867 46.5029C3.96088 44.1744 2.55804 40.9015 2.50922 37.5H28.4908C28.442 40.9015 27.0389 44.1744 24.6025 46.5ZM21.5293 25.9956C25.2531 28.0888 27.7515 31.6239 28.3551 35.5H2.6449C3.24847 31.624 5.74683 28.0889 9.47021 25.9961C10.1055 25.6392 10.5 24.9722 10.5 24.2554V16.5H20.5V24.2554C20.5 24.9722 20.8945 25.6392 21.5293 25.9956Z" fill="black"/>
</svg>
